<svg viewBox="0 0 100 24" fill="none" xmlns="http://www.w3.org/2000/svg">
<g clip-path="url(#clip0)">
<path d="M0 10.5201V0.0837402H9.43379C10.5454 0.0837402 11.3458 0.208726 11.8338 0.458699C12.3032 0.698034 12.6289 1.03709 12.8124 1.47587C12.96 1.82291 13.0345 2.27366 13.0345 2.82945C13.0345 3.7469 12.8071 4.38911 12.3537 4.75609C12.0891 4.97017 11.633 5.12839 10.9855 5.23078C11.8112 5.31188 12.3843 5.46745 12.706 5.69748C13.2007 6.0485 13.448 6.70402 13.448 7.66269C13.448 8.89659 13.0478 9.72629 12.2473 10.1544C11.7939 10.3991 10.9988 10.5214 9.86194 10.5214H0V10.5201ZM3.10338 4.24285H8.43922C8.95911 4.24285 9.30349 4.20031 9.47103 4.11255C9.74626 3.97959 9.88321 3.72296 9.88321 3.34003C9.88321 2.89194 9.69706 2.60607 9.32476 2.48374C9.16654 2.43321 8.84344 2.40662 8.35413 2.40662H3.10205V4.24285H3.10338ZM3.10338 8.19587H8.79158C9.28089 8.19587 9.60266 8.16795 9.75557 8.11211C10.092 8.00042 10.2595 7.71986 10.2595 7.27044C10.2595 6.80108 10.0813 6.50324 9.72499 6.3756C9.58271 6.32507 9.24366 6.29848 8.70781 6.29848H3.10338V8.19587Z" fill="#222222"/>
<path d="M15.9557 10.5201V0.0837402H24.9693C26.3096 0.0837402 27.2496 0.208726 27.7908 0.458699C28.2854 0.688726 28.6365 1.07033 28.8452 1.60618C29.0287 2.07953 29.1205 2.69648 29.1205 3.45571C29.1205 4.55665 28.8984 5.34114 28.4556 5.8105C28.211 6.07111 27.7709 6.26657 27.1326 6.39953C26.9904 6.43543 26.6819 6.48596 26.2072 6.55244C26.4718 6.56706 26.646 6.5777 26.7271 6.58302C27.4611 6.62823 27.9278 6.70801 28.1259 6.8197C28.7123 7.11488 28.9941 7.79831 28.9742 8.86867V10.5201H25.7551V9.2197C25.7551 8.6546 25.6222 8.27698 25.3576 8.08817C25.19 7.97648 24.9494 7.91266 24.6396 7.8967C24.5372 7.88607 24.3258 7.88075 24.0053 7.88075H19.1202V10.5188H15.9557V10.5201ZM19.1202 5.32917H24.0891C24.8683 5.32917 25.3815 5.24008 25.6262 5.06191C25.8243 4.91964 25.924 4.61382 25.924 4.14446C25.924 3.84928 25.908 3.60729 25.8775 3.41848C25.8163 3.05681 25.6129 2.82679 25.2658 2.73105C25.0717 2.67521 24.718 2.64729 24.2034 2.64729H19.1202V5.32917Z" fill="#222222"/>
<path d="M30.474 10.5202L36.3457 0.0852051H40.6046L46.3153 10.5202H42.845L41.8052 8.65473H35.0693L34.068 10.5202H30.474ZM36.2154 6.48343H40.7029L38.4319 2.32432L36.2154 6.48343Z" fill="#222222"/>
<path d="M47.7673 10.5201V0.0837402H52.8199L59.1504 8.02701L59.0666 0.0837402H62.0716V10.5188H56.9724L50.7337 2.65925L50.8255 10.5188H47.7673V10.5201Z" fill="#222222"/>
<path d="M64.7853 10.5201V0.0837402H73.8136C74.7417 0.0837402 75.5182 0.139585 76.1458 0.252604C77.1098 0.420139 77.8025 0.881524 78.2254 1.63676C78.4248 1.99842 78.5591 2.45183 78.6309 2.99831C78.7173 3.66047 78.7612 4.43033 78.7612 5.30657C78.7612 6.36629 78.7107 7.24119 78.6083 7.92862C78.5112 8.59078 78.2333 9.15986 77.7746 9.63321C77.4023 10.0161 76.9462 10.2595 76.4064 10.3672C75.9065 10.4696 75.1805 10.5201 74.2271 10.5201H64.7853ZM67.9658 8.03499H73.295C73.896 8.03499 74.3268 7.99377 74.5875 7.91266C75.0967 7.75443 75.3985 7.36219 75.4903 6.73593C75.5408 6.38357 75.5661 5.9049 75.5661 5.29859C75.5661 4.56994 75.5076 4.02213 75.3906 3.65515C75.2523 3.21238 74.9651 2.92651 74.5263 2.79886C74.2404 2.71776 73.8482 2.67654 73.3482 2.67654H67.9658V8.03499Z" fill="#222222"/>
<path d="M81.2676 10.5201V0.0837402H84.4481V10.5188H81.2676V10.5201Z" fill="#222222"/>
<path d="M86.9943 7.19468H90.1137C90.1336 7.62814 90.1948 7.90604 90.2972 8.02837C90.4035 8.15069 90.5498 8.23047 90.732 8.26504C91.1149 8.34216 91.777 8.37939 92.7198 8.37939C94.2595 8.37939 95.2607 8.35413 95.7247 8.30227C96.1582 8.25174 96.456 8.15734 96.6196 8.01906C96.7725 7.89141 96.8483 7.69064 96.8483 7.4154C96.8483 6.95668 96.6701 6.66814 96.3138 6.55114C96.0997 6.47933 95.7434 6.4421 95.2434 6.43679C95.1464 6.43679 94.8405 6.43413 94.326 6.42881H91.4513C90.6721 6.42881 89.9953 6.40354 89.4249 6.35169C88.5021 6.2759 87.8466 5.97939 87.4597 5.46482C87.1233 5.01673 86.9544 4.30537 86.9544 3.33208C86.9544 2.36809 87.1153 1.66072 87.4358 1.20598C87.6658 0.880221 87.9916 0.635568 88.4144 0.472022C89.026 0.227368 89.9608 0.0824377 91.2199 0.0359003C91.8076 0.0132964 92.527 0 93.3779 0C94.7993 0 95.891 0.0226039 96.6502 0.0691413C97.6487 0.124986 98.3827 0.359003 98.8521 0.772521C99.3254 1.18471 99.5634 1.90138 99.5634 2.92122C99.5634 3.00764 99.5634 3.12199 99.5634 3.26559H96.4667C96.4614 3.03158 96.4308 2.85341 96.3749 2.73108C96.2579 2.47579 95.9415 2.32554 95.4269 2.28033C95.0998 2.25507 94.6318 2.24177 94.0201 2.24177C92.7916 2.24177 91.8542 2.26438 91.2066 2.31091C90.712 2.34681 90.3982 2.4492 90.2666 2.61673C90.1442 2.76964 90.0831 2.95579 90.0831 3.17518C90.0831 3.61928 90.3105 3.89717 90.7639 4.00886C90.8915 4.04476 91.317 4.07003 92.0403 4.08465H94.9988C95.5187 4.08465 96.2606 4.10992 97.2233 4.16177C98.3348 4.21762 99.0887 4.53141 99.4863 5.10183C99.828 5.59114 99.9982 6.30515 99.9982 7.24255C99.9982 8.41529 99.7376 9.24764 99.219 9.74227C98.8308 10.1146 98.1713 10.3486 97.2392 10.4456C96.23 10.548 94.8033 10.5986 92.9578 10.5986C91.8927 10.5986 90.9646 10.5799 90.1748 10.5454C88.7681 10.4789 87.8586 10.1664 87.4451 9.60532C87.1393 9.1918 86.9864 8.57618 86.9864 7.75446C86.9864 7.62947 86.989 7.44332 86.9943 7.19468Z" fill="#222222"/>
<path d="M0.748587 16.6843H0V21.6532H0.748587V16.6843Z" fill="#222222"/>
<path d="M2.62735 21.6533V16.6844H3.37594V17.6684C3.5089 17.2961 3.70702 17.0275 3.97029 16.8639C4.17239 16.7403 4.43832 16.6552 4.7694 16.6073C5.0566 16.5674 5.47145 16.5461 6.01527 16.5461C6.54846 16.5461 6.954 16.5741 7.23056 16.6286C7.83156 16.7509 8.23045 17.0182 8.42458 17.4277C8.54026 17.6737 8.59876 18.0393 8.59876 18.526V21.6533H7.85017V18.5619C7.85017 18.0832 7.75843 17.7614 7.57361 17.5979C7.39278 17.437 7.10159 17.3333 6.70137 17.2854C6.47267 17.2588 6.17616 17.2442 5.8145 17.2442C5.14835 17.2442 4.62846 17.3054 4.25616 17.429C3.66846 17.6271 3.37461 18.0633 3.37461 18.7361V21.6533H2.62735Z" fill="#222222"/>
<path d="M16.2721 21.6533H15.5235V20.9193C15.4238 21.1148 15.2776 21.2757 15.0821 21.406C14.7683 21.6174 14.0862 21.7238 13.0358 21.7238C12.0691 21.7238 11.3631 21.6493 10.919 21.4991C10.5666 21.3821 10.306 21.1547 10.1345 20.8116C9.94704 20.4353 9.85263 19.8875 9.85263 19.1669C9.85263 18.4489 9.94704 17.9011 10.1345 17.5261C10.3087 17.1844 10.5706 16.9557 10.919 16.8387C11.3671 16.6884 12.0731 16.6126 13.0358 16.6126C13.7338 16.6126 14.2564 16.6539 14.6048 16.7363C15.0422 16.8413 15.348 17.07 15.5222 17.4224V14.5823H16.2708V21.6533H16.2721ZM13.0478 17.2429C12.2925 17.2429 11.766 17.2854 11.4681 17.3719C11.2634 17.4304 11.1038 17.5181 10.9908 17.6378C10.8778 17.7575 10.7927 17.9263 10.7342 18.1457C10.669 18.4023 10.6371 18.7414 10.6371 19.1655C10.6371 19.9686 10.7674 20.4912 11.0267 20.7345C11.1809 20.8781 11.415 20.9739 11.7288 21.0217C12.0332 21.0696 12.4866 21.0935 13.0876 21.0935C13.8708 21.0935 14.4093 21.051 14.7032 20.9659C14.9757 20.8914 15.1725 20.7545 15.2922 20.5563C15.4531 20.2891 15.5328 19.8264 15.5328 19.1669C15.5328 18.3664 15.4025 17.8452 15.1433 17.6032C14.989 17.4596 14.755 17.3639 14.4412 17.316C14.1381 17.2668 13.674 17.2429 13.0478 17.2429Z" fill="#222222"/>
<path d="M23.9229 16.6843V21.6532H23.1743V20.6679C23.0413 21.0402 22.8406 21.3088 22.5746 21.4737C22.3765 21.596 22.1119 21.6824 21.7795 21.7303C21.4923 21.7715 21.0775 21.7915 20.5336 21.7915C19.9965 21.7915 19.5923 21.7649 19.3183 21.709C18.7174 21.5854 18.3185 21.3195 18.123 20.9086C18.0073 20.6626 17.9488 20.297 17.9488 19.8116V16.6843H18.6974V19.7757C18.6974 20.2544 18.7892 20.5749 18.974 20.7397C19.1548 20.9006 19.446 21.0057 19.8449 21.0522C20.0736 21.0801 20.3701 21.0934 20.7318 21.0934C21.3979 21.0934 21.9178 21.0323 22.2901 20.9086C22.8778 20.7105 23.1716 20.2744 23.1716 19.6016V16.6843H23.9229Z" fill="#222222"/>
<path d="M30.7054 18.0885V17.9702C30.7054 17.6936 30.6216 17.5128 30.4541 17.4264C30.2081 17.3001 29.6151 17.2376 28.675 17.2376C27.7655 17.2376 27.1419 17.2748 26.8042 17.3506C26.6127 17.3918 26.4705 17.4716 26.3787 17.5912C26.2963 17.6976 26.2551 17.8598 26.2551 18.0779C26.2551 18.385 26.3694 18.5858 26.5981 18.6776C26.7005 18.7175 26.8561 18.744 27.0648 18.7547C27.2762 18.7693 27.7576 18.7773 28.5048 18.7799C29.5818 18.7906 30.2759 18.8185 30.587 18.8677C30.9899 18.9329 31.2745 19.0884 31.438 19.3344C31.5643 19.5219 31.6281 19.8171 31.6281 20.216C31.6281 20.6866 31.5324 21.0284 31.3409 21.2411C31.1495 21.4565 30.8237 21.5935 30.3623 21.652C29.9834 21.6998 29.3545 21.7224 28.4756 21.7224C27.4743 21.7224 26.7829 21.6852 26.404 21.6094C26.0104 21.531 25.7272 21.3368 25.553 21.0297C25.4746 20.8901 25.428 20.7465 25.4147 20.5989C25.4014 20.4699 25.3935 20.3037 25.3935 20.1016V19.974H26.162V20.0963C26.162 20.3569 26.1806 20.5324 26.2192 20.6242C26.2936 20.8196 26.4718 20.9406 26.7524 20.9885C27.1313 21.0563 27.7762 21.0909 28.6857 21.0909C29.6669 21.0909 30.2719 21.0417 30.5006 20.9419C30.7293 20.8422 30.8437 20.6122 30.8437 20.2492C30.8437 19.9035 30.7559 19.6841 30.5817 19.5884C30.4448 19.5126 30.2147 19.4634 29.8903 19.4394C29.8012 19.4368 29.3279 19.4288 28.4702 19.4182C27.493 19.4115 26.9172 19.4009 26.7417 19.3876C26.2458 19.3464 25.9054 19.2174 25.7219 18.998C25.5543 18.7959 25.4706 18.4888 25.4706 18.0752C25.4706 17.4769 25.6594 17.0847 26.0344 16.8958C26.2591 16.7828 26.5795 16.7044 26.993 16.6592C27.3002 16.6259 27.7616 16.6086 28.3772 16.6086C29.4435 16.6086 30.1363 16.6472 30.4541 16.7217C30.9288 16.8347 31.2319 17.0488 31.3622 17.3625C31.4274 17.5261 31.4593 17.7388 31.4593 17.9981V18.0859H30.7054V18.0885Z" fill="#222222"/>
<path d="M32.4698 17.3147V16.6831H33.6638L33.6838 15.5808H34.4377L34.4164 16.6831H37.8256V17.3147H34.4004L34.3592 19.8011C34.3486 20.2 34.3911 20.4912 34.4869 20.6733C34.5786 20.8542 34.7581 20.9725 35.0254 21.027C35.2368 21.0722 35.5479 21.0935 35.9588 21.0935C36.3723 21.0935 36.6701 21.0509 36.851 20.9659C37.0664 20.8635 37.194 20.684 37.2352 20.4273C37.2525 20.3183 37.2605 20.0657 37.2605 19.6681V19.4993H37.932V19.7C37.932 20.2266 37.9107 20.5909 37.8708 20.7917C37.799 21.1294 37.5916 21.3727 37.2499 21.519C36.9427 21.6546 36.4906 21.7237 35.8963 21.7237C35.1105 21.7237 34.568 21.644 34.2715 21.4831C33.8925 21.2783 33.6744 20.9592 33.6199 20.5297C33.6026 20.3795 33.5973 20.1375 33.604 19.8011L33.6505 17.3147H32.4698Z" fill="#222222"/>
<path d="M39.0927 21.6532V16.6843H39.8413V17.659C39.9544 17.3133 40.1219 17.0646 40.3439 16.9104C40.5155 16.7947 40.7415 16.7149 41.026 16.6697C41.272 16.6312 41.6257 16.6125 42.0871 16.6125C42.5445 16.6125 42.8942 16.6405 43.1335 16.695C43.6561 16.8147 44.0018 17.0713 44.1693 17.4635C44.269 17.6989 44.3182 18.0499 44.3182 18.5139V18.8118H43.5696V18.5498C43.5696 18.1602 43.5244 17.885 43.4367 17.7241C43.313 17.5061 43.079 17.3638 42.7346 17.2986C42.5299 17.2614 42.248 17.2415 41.889 17.2415C41.1364 17.2415 40.6099 17.3545 40.3094 17.5792C39.9982 17.8159 39.8427 18.1962 39.8427 18.7227V21.6506H39.0927V21.6532Z" fill="#222222"/>
<path d="M46.2821 16.6843H45.5335V21.6532H46.2821V16.6843Z" fill="#222222"/>
<path d="M47.9787 18.1243C47.9894 17.5154 48.1702 17.1112 48.5225 16.9091C48.7552 16.7721 49.0876 16.6843 49.5224 16.6431C49.7591 16.6232 50.1434 16.6125 50.6766 16.6125C51.5727 16.6125 52.1817 16.6445 52.5061 16.7096C53.0154 16.8053 53.3691 17.0035 53.5685 17.304C53.6882 17.4848 53.7587 17.7055 53.7786 17.9648C53.7919 18.1416 53.7999 18.3517 53.7999 18.5897V21.6506H53.0513V20.9791C52.9463 21.2344 52.788 21.4165 52.5806 21.5216C52.4197 21.6 52.1937 21.6545 51.9038 21.6851C51.6685 21.7091 51.2855 21.721 50.755 21.721C49.8362 21.721 49.2326 21.6998 48.9454 21.6545C48.4534 21.5721 48.1143 21.3766 47.9309 21.0655C47.8152 20.8674 47.7567 20.5682 47.7567 20.168C47.7567 19.5737 47.9003 19.1761 48.1875 18.978C48.3856 18.8424 48.706 18.7493 49.1515 18.7014C49.4865 18.6668 49.9665 18.6496 50.5928 18.6496C51.6073 18.6496 52.2455 18.7027 52.5048 18.8078C52.7588 18.9142 52.9409 19.0883 53.0526 19.3317V18.8078C53.0526 18.3092 53.0101 17.9635 52.925 17.772C52.8253 17.5499 52.6325 17.4063 52.3453 17.3412C52.0448 17.2734 51.4903 17.2388 50.6845 17.2388C50.0011 17.2388 49.5251 17.2734 49.2592 17.3412C48.9919 17.413 48.839 17.5792 48.7978 17.8385C48.7871 17.9063 48.7805 18.0007 48.7778 18.1204H47.9787V18.1243ZM50.7723 19.2838C50.0955 19.2838 49.5743 19.3117 49.2086 19.3662C48.9454 19.4075 48.7632 19.5019 48.6608 19.6481C48.5677 19.7811 48.5225 19.9672 48.5225 20.2066C48.5225 20.6374 48.6887 20.8993 49.0198 20.9911C49.2246 21.0496 49.6115 21.0815 50.1779 21.0881C50.3734 21.0921 50.5675 21.0934 50.763 21.0934C51.6312 21.0934 52.1963 21.0496 52.4596 20.9605C52.8598 20.8275 53.0593 20.5536 53.0593 20.1414C53.0593 19.8263 52.9223 19.5976 52.6497 19.454C52.4304 19.3396 51.8041 19.2838 50.7723 19.2838Z" fill="#222222"/>
<path d="M55.4792 21.6533V14.5823H56.2278V21.6533H55.4792Z" fill="#222222"/>
<path d="M66.8144 21.6533H66.0658V20.9193C65.9674 21.1148 65.8198 21.2757 65.6257 21.406C65.3106 21.6174 64.6298 21.7238 63.5794 21.7238C62.6114 21.7238 61.9067 21.6493 61.4613 21.4991C61.1089 21.3821 60.8483 21.1547 60.6768 20.8116C60.4893 20.4353 60.3949 19.8875 60.3949 19.1669C60.3949 18.4489 60.4893 17.9011 60.6768 17.5261C60.851 17.1844 61.1129 16.9557 61.4613 16.8387C61.9094 16.6884 62.6154 16.6126 63.5794 16.6126C64.2761 16.6126 64.8 16.6539 65.1484 16.7363C65.5858 16.8413 65.8916 17.07 66.0658 17.4224V14.5823H66.8144V21.6533ZM63.59 17.2429C62.8348 17.2429 62.3083 17.2854 62.0104 17.3719C61.8057 17.4304 61.6461 17.5181 61.5331 17.6378C61.4201 17.7575 61.335 17.9263 61.2778 18.1457C61.2126 18.4023 61.1794 18.7414 61.1794 19.1655C61.1794 19.9686 61.3097 20.4912 61.569 20.7345C61.7232 20.8781 61.9572 20.9739 62.2724 21.0217C62.5768 21.0696 63.0303 21.0935 63.6313 21.0935C64.4131 21.0935 64.9529 21.051 65.2468 20.9659C65.5207 20.8914 65.7161 20.7545 65.8371 20.5563C65.998 20.2891 66.0778 19.8264 66.0778 19.1669C66.0778 18.3664 65.9475 17.8452 65.6882 17.6032C65.534 17.4596 65.2999 17.3639 64.9862 17.316C64.6803 17.2668 64.2163 17.2429 63.59 17.2429Z" fill="#222222"/>
<path d="M69.1373 19.3091C69.1413 19.6774 69.1546 19.9287 69.1785 20.063C69.2609 20.5244 69.5082 20.8248 69.9204 20.9645C70.1744 21.0496 70.7195 21.0921 71.5559 21.0921C72.3111 21.0921 72.8257 21.0549 73.0996 20.9804C73.4613 20.8847 73.6926 20.7145 73.791 20.4725C73.8216 20.394 73.8455 20.2917 73.8628 20.1653H74.6273C74.5968 20.5855 74.4598 20.9166 74.2178 21.1599C73.9718 21.3993 73.6155 21.5548 73.1514 21.6266C72.7273 21.6918 72.1821 21.7237 71.516 21.7237C70.5693 21.7237 69.8726 21.6492 69.4245 21.499C69.0721 21.382 68.8089 21.1546 68.6347 20.8116C68.4459 20.4353 68.3528 19.8888 68.3528 19.1721C68.3528 18.4514 68.4472 17.901 68.6347 17.526C68.8089 17.1843 69.0721 16.9556 69.4245 16.8386C69.8686 16.6883 70.56 16.6125 71.5 16.6125C72.6382 16.6125 73.3974 16.7149 73.7764 16.9197C74.1793 17.1417 74.4385 17.522 74.5555 18.0579C74.6167 18.3318 74.646 18.748 74.6433 19.3091H69.1373ZM73.8548 18.6988C73.8522 18.3477 73.8016 18.0805 73.7059 17.8983C73.5517 17.6045 73.2911 17.4143 72.9214 17.3292C72.6754 17.2707 72.2021 17.2415 71.5014 17.2415C70.7195 17.2415 70.1997 17.2827 69.943 17.3651C69.5601 17.4888 69.3155 17.7294 69.2104 18.0884C69.1732 18.2254 69.1492 18.4275 69.1386 18.6988H73.8548Z" fill="#222222"/>
<path d="M81.2476 18.0885V17.9702C81.2476 17.6936 81.1652 17.5128 80.9963 17.4264C80.7517 17.3001 80.1574 17.2376 79.2173 17.2376C78.3078 17.2376 77.6842 17.2748 77.3452 17.3506C77.1537 17.3918 77.0128 17.4716 76.9197 17.5912C76.8372 17.6976 76.796 17.8598 76.796 18.0779C76.796 18.385 76.9104 18.5858 77.1391 18.6776C77.2415 18.7175 77.397 18.744 77.6058 18.7547C77.8172 18.7693 78.2972 18.7773 79.0471 18.7799C80.1241 18.7906 80.8182 18.8185 81.1293 18.8677C81.5322 18.9329 81.8167 19.0884 81.9803 19.3344C82.1066 19.5219 82.1704 19.8171 82.1704 20.216C82.1704 20.6866 82.0747 21.0284 81.8832 21.2411C81.6918 21.4565 81.366 21.5935 80.9046 21.652C80.5257 21.6998 79.8967 21.7224 79.0179 21.7224C78.0166 21.7224 77.3265 21.6852 76.9463 21.6094C76.5527 21.531 76.2695 21.3368 76.0953 21.0297C76.0169 20.8901 75.9703 20.7465 75.957 20.5989C75.9424 20.4699 75.9371 20.3037 75.9371 20.1016V19.974H76.7056V20.0963C76.7056 20.3569 76.7242 20.5324 76.7615 20.6242C76.8359 20.8196 77.0141 20.9406 77.2946 20.9885C77.6736 21.0563 78.3185 21.0909 79.2279 21.0909C80.2092 21.0909 80.8142 21.0417 81.0429 20.9419C81.2716 20.8422 81.3859 20.6122 81.3859 20.2492C81.3859 19.9035 81.2982 19.6841 81.124 19.5884C80.987 19.5126 80.757 19.4634 80.4326 19.4394C80.3435 19.4368 79.8701 19.4288 79.0125 19.4182C78.0352 19.4115 77.4595 19.4009 77.284 19.3876C76.788 19.3464 76.4477 19.2174 76.2642 18.998C76.0966 18.7959 76.0129 18.4888 76.0129 18.0752C76.0129 17.4769 76.2003 17.0847 76.5766 16.8958C76.8027 16.7828 77.1218 16.7044 77.5353 16.6592C77.8438 16.6259 78.3038 16.6086 78.9195 16.6086C79.9858 16.6086 80.6772 16.6472 80.995 16.7217C81.471 16.8347 81.7729 17.0488 81.9032 17.3625C81.9683 17.5261 82.0016 17.7388 82.0016 17.9981V18.0859H81.2476V18.0885Z" fill="#222222"/>
<path d="M84.3856 16.6843H83.637V21.6532H84.3856V16.6843Z" fill="#222222"/>
<path d="M92.3475 16.6845V21.1653C92.3475 22.0097 92.2876 22.5814 92.168 22.8832C91.9965 23.2994 91.7385 23.5853 91.3928 23.7395C90.9966 23.9137 90.2546 24.0001 89.1683 24.0001C88.2549 24.0001 87.5887 23.9443 87.1685 23.8313C86.8162 23.7355 86.5356 23.5387 86.3269 23.2409C86.1394 22.9683 86.045 22.6519 86.045 22.2929V22.1905H86.8042V22.2929C86.8042 22.6 86.9093 22.8473 87.122 23.0361C87.2789 23.1758 87.5063 23.2688 87.8041 23.314C88.0501 23.3513 88.5208 23.3699 89.2135 23.3699C89.9993 23.3699 90.5179 23.3327 90.7665 23.2569C91.0777 23.1651 91.2891 22.9909 91.4021 22.7383C91.5045 22.5096 91.5643 22.1639 91.5816 21.7025C91.5883 21.5483 91.5936 21.2877 91.5962 20.918C91.4739 21.1308 91.3263 21.2917 91.1561 21.4047C90.8344 21.6161 90.1522 21.7225 89.1098 21.7225C88.1418 21.7225 87.4371 21.648 86.9917 21.4978C86.6393 21.3807 86.3787 21.1534 86.2072 20.8103C86.0197 20.434 85.9253 19.8876 85.9253 19.1709C85.9253 18.4502 86.0197 17.8997 86.2072 17.5248C86.3787 17.1831 86.6393 16.9544 86.9917 16.8374C87.4371 16.6871 88.1418 16.6113 89.1098 16.6113C90.2068 16.6113 90.9141 16.735 91.2319 16.981C91.3689 17.0873 91.4899 17.2336 91.5962 17.4211V16.6831H92.3475V16.6845ZM89.0553 17.2429C88.2628 17.2429 87.7389 17.2841 87.4863 17.3666C87.1034 17.4902 86.8614 17.7495 86.759 18.1457C86.6939 18.3984 86.6619 18.7388 86.6619 19.1656C86.6619 19.9647 86.7923 20.4859 87.0515 20.7292C87.2151 20.8861 87.4478 20.9872 87.7483 21.031C88.0009 21.0723 88.4543 21.0922 89.1071 21.0922C89.9382 21.0922 90.478 21.051 90.7267 20.9699C91.1136 20.8462 91.3569 20.5869 91.4606 20.1907C91.5258 19.9368 91.5577 19.595 91.5577 19.1656C91.5577 18.3691 91.4287 17.8479 91.1681 17.6019C91.0045 17.4477 90.7692 17.3466 90.466 17.2988C90.2201 17.2615 89.7494 17.2429 89.0553 17.2429Z" fill="#222222"/>
<path d="M94.0242 21.6533V16.6844H94.7727V17.6684C94.9057 17.2961 95.1051 17.0275 95.3671 16.8639C95.5692 16.7403 95.8351 16.6552 96.1662 16.6073C96.4534 16.5674 96.8682 16.5461 97.4121 16.5461C97.9453 16.5461 98.3508 16.5741 98.6274 16.6286C99.2284 16.7509 99.6273 17.0182 99.8214 17.4277C99.9371 17.6737 99.9956 18.0393 99.9956 18.526V21.6533H99.247V18.5619C99.247 18.0832 99.1552 17.7614 98.9704 17.5979C98.7896 17.437 98.4984 17.3333 98.0982 17.2854C97.8695 17.2588 97.573 17.2442 97.2113 17.2442C96.5438 17.2442 96.0253 17.3054 95.6516 17.429C95.0639 17.6271 94.7701 18.0633 94.7701 18.7361V21.6533H94.0242Z" fill="#222222"/>
</g>
<defs>
<clipPath id="clip0">
<rect width="99.9982" height="24" fill="white"/>
</clipPath>
</defs>
</svg>
