<svg viewBox="0 0 80 80" fill="none" xmlns="http://www.w3.org/2000/svg">
<path d="M32.0889 14.6096C32.2046 14.2292 31.99 13.827 31.6096 13.7112C31.2292 13.5955 30.827 13.8101 30.7112 14.1906L23.8165 36.8581C23.7186 36.9466 23.6439 37.0631 23.6061 37.1997C23.5718 37.3238 23.5721 37.4492 23.6013 37.5657L15.8285 63.1201H63.3001C63.6977 63.1201 64.0201 62.7977 64.0201 62.4001C64.0201 62.0024 63.6977 61.6801 63.3001 61.6801H43.1156C43.1186 61.5204 43.1201 61.3604 43.1201 61.2C43.1201 57.5383 42.3454 54.0555 40.9502 50.9083C40.7891 50.5448 40.3638 50.3807 40.0002 50.5418C39.6367 50.703 39.4726 51.1283 39.6338 51.4919C40.949 54.4589 41.6801 57.7431 41.6801 61.2C41.6801 61.3604 41.6785 61.5204 41.6754 61.6801H17.7717L24.8791 38.313C28.8101 39.5447 32.3065 41.7619 35.0784 44.6762C35.3524 44.9643 35.8081 44.9757 36.0963 44.7017C36.3844 44.4276 36.3958 43.9719 36.1218 43.6838C33.1822 40.5933 29.4721 38.2409 25.2982 36.9352L32.0889 14.6096Z" fill="white"/>
<path d="M38.6449 46.7915C38.4192 46.4641 37.9709 46.3816 37.6435 46.6072C37.3161 46.8329 37.2336 47.2812 37.4592 47.6087C37.6352 47.864 37.8064 48.123 37.9726 48.3854C38.1854 48.7213 38.6302 48.8211 38.9662 48.6083C39.3021 48.3955 39.4019 47.9507 39.1891 47.6148C39.0129 47.3366 38.8314 47.0622 38.6449 46.7915Z" fill="white"/>
<path d="M50.3585 36.9855C51.1937 37.2351 51.8033 37.5759 52.1873 38.0079C52.5809 38.4303 52.7777 39.0063 52.7777 39.7359C52.7777 40.2447 52.6817 40.6815 52.4897 41.0463C52.3073 41.4111 52.0577 41.7135 51.7409 41.9535C51.4337 42.1935 51.0737 42.3663 50.6609 42.4719C50.2577 42.5871 49.8401 42.6447 49.4081 42.6447C48.6881 42.6447 47.9969 42.5439 47.3345 42.3423C46.6817 42.1407 46.1249 41.7951 45.6641 41.3055C45.5393 41.1711 45.4625 41.0607 45.4337 40.9743C45.4145 40.8783 45.4049 40.7919 45.4049 40.7151C45.4049 40.5615 45.4769 40.4223 45.6209 40.2975C45.7649 40.1727 45.9137 40.1103 46.0673 40.1103C46.1537 40.1199 46.2305 40.1487 46.2977 40.1967C46.3649 40.2447 46.4273 40.2975 46.4849 40.3551C46.9457 40.8255 47.4017 41.1471 47.8529 41.3199C48.3041 41.4831 48.8129 41.5647 49.3793 41.5647C49.9937 41.5647 50.4977 41.4255 50.8913 41.1471C51.2945 40.8591 51.4961 40.4415 51.4961 39.8943C51.4961 39.4143 51.3521 39.0351 51.0641 38.7567C50.7761 38.4783 50.3009 38.2431 49.6385 38.0511L48.3857 37.6911C47.4929 37.4415 46.8257 37.1055 46.3841 36.6831C45.9521 36.2607 45.7361 35.6703 45.7361 34.9119C45.7361 34.4319 45.8369 34.0191 46.0385 33.6735C46.2497 33.3279 46.5185 33.0447 46.8449 32.8239C47.1809 32.5935 47.5457 32.4255 47.9393 32.3199C48.3425 32.2143 48.7409 32.1615 49.1345 32.1615C49.7969 32.1615 50.4161 32.2719 50.9921 32.4927C51.5777 32.7135 52.0721 33.0783 52.4753 33.5871C52.5521 33.6927 52.6049 33.7839 52.6337 33.8607C52.6625 33.9375 52.6769 34.0143 52.6769 34.0911C52.6769 34.2543 52.6145 34.3887 52.4897 34.4943C52.3649 34.5999 52.2305 34.6527 52.0865 34.6527C51.9905 34.6527 51.8993 34.6335 51.8129 34.5951C51.7361 34.5471 51.6449 34.4703 51.5393 34.3647C51.1745 33.9615 50.8049 33.6735 50.4305 33.5007C50.0561 33.3279 49.6193 33.2415 49.1201 33.2415C48.8513 33.2415 48.5921 33.2751 48.3425 33.3423C48.0929 33.4095 47.8673 33.5103 47.6657 33.6447C47.4737 33.7791 47.3153 33.9519 47.1905 34.1631C47.0753 34.3647 47.0177 34.5999 47.0177 34.8687C47.0177 35.0511 47.0417 35.2191 47.0897 35.3727C47.1473 35.5167 47.2385 35.6559 47.3633 35.7903C47.4977 35.9247 47.6801 36.0495 47.9105 36.1647C48.1409 36.2799 48.4289 36.3903 48.7745 36.4959L50.3585 36.9855Z" fill="white"/>
<path fill-rule="evenodd" clip-rule="evenodd" d="M54.5131 42.5007C54.3403 42.5007 54.1723 42.4575 54.0091 42.3711C53.8555 42.2751 53.7787 42.1455 53.7787 41.9823C53.7787 41.9535 53.7835 41.9151 53.7931 41.8671C53.8027 41.8191 53.8267 41.7567 53.8651 41.6799L57.6523 32.6943C57.7099 32.5791 57.7867 32.4879 57.8827 32.4207C57.9883 32.3439 58.1419 32.3055 58.3435 32.3055C58.5643 32.3055 58.7227 32.3439 58.8187 32.4207C58.9243 32.4879 59.0011 32.5791 59.0491 32.6943L62.8075 41.6511C62.8459 41.7279 62.8651 41.7903 62.8651 41.8383C62.8747 41.8767 62.8795 41.9151 62.8795 41.9535C62.8795 42.1263 62.7979 42.2607 62.6347 42.3567C62.4811 42.4527 62.3131 42.5007 62.1307 42.5007C61.9963 42.5007 61.8907 42.4671 61.8139 42.3999C61.7371 42.3231 61.6747 42.2319 61.6267 42.1263L60.5179 39.5343H56.1115L54.9883 42.1407C54.8827 42.3807 54.7243 42.5007 54.5131 42.5007ZM58.3291 33.9759L56.5579 38.4687H60.0715L58.3291 33.9759Z" fill="white"/>
<path fill-rule="evenodd" clip-rule="evenodd" d="M80 40C80 62.0914 62.0914 80 40 80C17.9086 80 0 62.0914 0 40C0 17.9086 17.9086 0 40 0C62.0914 0 80 17.9086 80 40ZM78.56 40C78.56 61.2961 61.2961 78.56 40 78.56C18.7039 78.56 1.44 61.2961 1.44 40C1.44 18.7039 18.7039 1.44 40 1.44C61.2961 1.44 78.56 18.7039 78.56 40Z" fill="white"/>
</svg>
